<?xml version="1.0" standalone="no"?>
<!DOCTYPE svg PUBLIC "-//W3C//DTD SVG 20010904//EN"
 "http://www.w3.org/TR/2001/REC-SVG-20010904/DTD/svg10.dtd">
<svg version="1.0" xmlns="http://www.w3.org/2000/svg"
 width="355.000000pt" height="355.000000pt" viewBox="0 0 355.000000 355.000000"
 preserveAspectRatio="xMidYMid meet">
<metadata>
Created by potrace 1.14, written by Peter Selinger 2001-2017
</metadata>
<g transform="translate(0.000000,355.000000) scale(0.100000,-0.100000)"
fill="#000000" stroke="none">
<path d="M1627 3363 c-2 -1 -28 -5 -58 -8 -30 -3 -72 -8 -94 -11 -22 -2 -59
-6 -83 -9 -24 -2 -48 -8 -55 -12 -12 -7 -19 -9 -62 -17 -54 -10 -85 -19 -85
-25 0 -4 -9 -7 -20 -8 -11 -1 -35 -9 -52 -17 -17 -9 -42 -16 -55 -16 -12 0
-23 -4 -23 -10 0 -5 -7 -10 -15 -10 -8 0 -23 -4 -33 -10 -9 -5 -35 -17 -57
-26 -22 -10 -42 -21 -45 -25 -3 -3 -25 -17 -50 -29 -25 -12 -62 -36 -82 -52
-21 -16 -38 -26 -38 -21 0 4 -4 3 -8 -2 -4 -6 -23 -22 -42 -35 -58 -41 -72
-52 -142 -121 -37 -37 -70 -64 -73 -61 -3 3 -5 0 -5 -6 0 -7 -14 -27 -31 -45
-17 -17 -58 -68 -90 -112 -33 -44 -64 -85 -69 -91 -5 -7 -6 -15 -3 -18 4 -3 1
-6 -5 -6 -6 0 -14 -10 -17 -22 -4 -11 -20 -42 -35 -69 -16 -26 -26 -50 -23
-53 4 -3 1 -6 -5 -6 -7 0 -12 -5 -12 -11 0 -5 -11 -35 -25 -65 -14 -30 -30
-76 -36 -101 -5 -26 -14 -52 -18 -58 -5 -5 -14 -41 -21 -80 -7 -38 -15 -79
-17 -90 -22 -105 -22 -450 1 -515 3 -8 8 -33 11 -55 3 -22 10 -58 16 -80 6
-22 10 -40 8 -41 -2 0 2 -8 9 -17 8 -9 11 -21 7 -27 -3 -5 -1 -10 4 -10 6 0
11 -8 11 -17 0 -30 26 -93 80 -201 59 -118 152 -260 185 -284 5 -4 7 -8 3 -8
-17 0 207 -225 272 -273 30 -23 64 -49 74 -59 11 -10 25 -18 31 -18 6 0 20 -8
31 -19 26 -24 104 -73 104 -65 0 3 7 -2 16 -10 8 -9 20 -14 25 -11 5 4 9 2 9
-3 0 -9 55 -35 120 -57 3 -1 16 -6 30 -12 61 -26 110 -43 205 -69 46 -13 158
-35 195 -39 25 -2 56 -7 70 -10 34 -8 271 -8 340 0 118 14 150 18 200 30 19 5
42 10 50 10 8 1 22 5 30 8 8 3 29 8 46 10 17 3 39 9 50 15 10 6 51 21 89 33
39 12 79 28 90 35 11 8 27 14 36 14 10 0 19 4 21 8 2 4 37 25 80 45 42 21 82
44 88 52 7 8 18 15 24 15 6 0 29 16 50 35 22 19 42 35 45 35 24 0 243 211 311
299 32 43 160 250 160 261 0 4 13 33 29 64 17 31 28 56 25 56 -2 0 2 10 10 23
8 12 17 33 19 47 3 14 11 41 19 60 8 19 18 51 21 70 4 19 9 46 12 60 6 29 15
85 19 120 1 14 5 30 8 35 7 13 2 327 -6 380 -7 47 -14 80 -16 80 -1 0 -3 9 -5
20 -3 18 -14 70 -20 100 -6 28 -40 131 -45 135 -3 3 -7 14 -8 25 -2 11 -7 22
-12 25 -4 3 -10 16 -14 30 -8 26 -57 131 -66 140 -3 3 -14 24 -24 48 -11 23
-23 42 -28 42 -5 0 -13 11 -18 25 -5 14 -15 25 -21 25 -7 0 -10 3 -6 6 6 6 -1
17 -33 53 -9 9 -29 34 -45 56 -33 42 -215 228 -215 218 0 -3 -11 5 -24 18 -30
30 -54 49 -60 49 -3 0 -15 8 -26 18 -35 30 -220 143 -242 148 -5 1 -11 3 -15
4 -5 1 -11 2 -15 1 -5 0 -8 4 -8 10 0 5 -4 7 -10 4 -5 -3 -10 -1 -10 5 0 6 -4
9 -9 5 -5 -3 -12 -1 -15 4 -5 8 -86 39 -121 47 -5 1 -39 12 -75 24 -36 12 -78
23 -94 25 -16 3 -43 9 -60 14 -17 6 -40 10 -51 10 -11 0 -33 3 -50 6 -52 10
-331 25 -338 18z m235 -364 c88 -9 113 -16 135 -35 15 -13 24 -27 20 -31 -25
-24 -198 -43 -221 -24 -10 8 -16 8 -25 -3 -9 -11 -6 -16 16 -24 113 -44 227
-33 312 28 59 43 76 35 76 -34 0 -30 3 -57 6 -61 10 -9 112 -45 130 -45 9 0
24 -9 34 -20 17 -19 17 -20 -6 -29 -13 -5 -19 -10 -14 -11 6 0 4 -4 -3 -9 -20
-12 -27 -71 -9 -71 8 0 20 6 26 14 15 18 49 27 57 15 4 -6 11 -6 19 1 10 8 15
8 20 0 4 -7 11 -7 18 -2 7 5 22 4 37 -4 15 -8 19 -14 10 -14 -10 0 -16 -9 -16
-25 0 -23 3 -25 51 -26 52 0 112 -27 108 -48 -2 -6 4 -11 13 -11 8 0 12 -4 9
-10 -3 -5 0 -10 9 -10 8 0 13 -8 12 -17 -2 -13 13 -26 51 -44 29 -14 50 -29
46 -32 -3 -4 1 -7 11 -7 9 0 14 -4 11 -10 -3 -5 2 -10 11 -10 10 0 15 -3 11
-6 -3 -4 1 -14 10 -23 16 -15 15 -16 -6 -19 -12 -2 -27 1 -34 6 -8 7 -15 6
-22 -2 -17 -20 -16 -36 3 -36 10 0 24 -9 32 -20 8 -11 21 -20 29 -20 8 0 12
-3 8 -6 -3 -3 5 -17 19 -31 13 -13 22 -29 19 -34 -4 -5 1 -9 10 -9 9 0 14 -4
11 -9 -4 -5 -2 -11 4 -13 17 -5 21 -48 4 -48 -8 0 -12 -4 -9 -10 3 -5 -1 -10
-9 -10 -24 0 -15 -21 28 -63 34 -33 39 -44 39 -84 0 -25 -5 -48 -10 -52 -6 -3
-9 -13 -8 -22 4 -25 -11 -43 -26 -33 -27 16 -35 11 -35 -22 0 -19 5 -34 11
-34 6 0 11 -11 11 -25 0 -17 -5 -25 -18 -25 -23 0 -54 -17 -93 -52 -41 -38
-52 -35 -50 12 1 23 -3 40 -9 40 -6 0 -4 5 4 10 13 8 13 10 -1 10 -11 0 -15 8
-14 28 0 15 -4 33 -11 40 -7 7 -11 21 -9 32 2 12 -2 20 -10 20 -7 0 -12 8 -11
17 2 10 -3 24 -11 31 -7 8 -11 18 -8 23 4 5 -1 9 -9 9 -9 0 -13 7 -11 20 3 13
-2 20 -12 20 -9 0 -14 3 -10 6 3 4 -1 13 -9 21 -8 8 -12 19 -9 24 4 5 -1 9
-10 9 -9 0 -13 5 -10 10 3 6 -1 10 -10 10 -9 0 -13 5 -10 10 3 6 -1 10 -10 10
-9 0 -13 5 -10 10 3 6 -1 10 -10 10 -9 0 -13 5 -10 10 3 6 -1 10 -10 10 -9 0
-13 5 -10 10 3 6 -1 10 -10 10 -9 0 -13 5 -10 10 4 6 -5 10 -20 10 -15 0 -24
4 -20 10 4 6 -5 10 -20 10 -15 0 -24 4 -20 10 3 6 -5 10 -19 10 -14 0 -28 5
-31 10 -3 6 -17 10 -30 10 -13 0 -27 5 -30 10 -3 6 -26 10 -51 10 -25 0 -43 4
-40 8 3 5 -1 9 -9 9 -8 0 -12 -4 -9 -9 3 -4 -15 -8 -40 -8 -25 0 -48 -4 -51
-10 -3 -5 -17 -10 -31 -10 -14 0 -22 -4 -19 -10 3 -5 -1 -10 -10 -10 -10 0
-13 -5 -9 -12 5 -8 0 -7 -11 2 -11 9 -16 10 -11 3 4 -8 1 -13 -9 -13 -9 0 -13
-4 -10 -10 3 -6 -4 -10 -17 -10 -18 0 -20 -2 -8 -10 12 -8 8 -10 -15 -11 -18
-1 -23 -3 -12 -6 26 -7 2 -33 -32 -34 -21 0 -23 -2 -8 -8 17 -6 17 -8 3 -20
-9 -7 -13 -17 -10 -22 3 -5 -7 -9 -23 -10 -25 0 -26 -1 -8 -9 l20 -9 -20 0
c-17 -1 -17 -3 -5 -11 12 -8 12 -10 -5 -10 -17 0 -17 -2 -5 -10 13 -9 8 -14
-12 -11 -4 0 -5 -8 -3 -19 3 -14 -2 -20 -13 -20 -15 0 -15 -2 -2 -10 8 -5 10
-10 4 -10 -7 0 -10 -13 -9 -30 2 -22 -2 -30 -14 -31 -12 0 -11 -2 4 -9 l20 -9
-20 -1 c-19 -1 -19 -2 -2 -9 10 -4 18 -11 18 -16 0 -5 -8 -12 -18 -16 -17 -7
-17 -8 2 -9 l20 -1 -20 -9 -20 -9 20 -1 20 -1 -20 -9 -20 -9 20 -1 20 -1 -20
-9 c-18 -8 -18 -9 5 -10 l25 -2 -25 -8 -25 -8 25 -2 25 -2 -25 -8 c-25 -8 -25
-8 5 -10 30 -2 30 -2 5 -10 l-25 -8 25 -2 25 -2 -25 -8 c-25 -8 -25 -8 5 -10
29 -2 30 -2 5 -10 -25 -7 -25 -7 5 -11 17 -3 -18 -5 -76 -6 -85 -1 -106 2
-106 13 0 8 11 14 26 15 24 0 24 1 6 9 l-20 9 20 1 20 1 -20 9 c-17 8 -16 9
10 11 l30 2 -30 5 -30 5 25 7 c23 8 24 8 3 9 -29 1 -19 31 11 32 16 1 14 3 -9
9 l-30 8 30 2 c30 2 30 2 5 10 -14 4 -20 8 -14 9 14 1 14 31 0 31 -6 0 -4 5 4
10 13 9 13 10 0 10 -11 0 -15 12 -15 48 1 26 -2 49 -6 52 -4 3 -9 12 -11 20
-2 8 -9 21 -16 28 -7 8 -10 18 -6 23 3 5 2 8 -3 7 -4 -2 -10 2 -12 7 -3 6 -15
21 -27 34 -13 14 -21 28 -18 33 3 5 0 7 -8 6 -7 -2 -12 3 -11 9 2 7 0 12 -5
12 -22 -4 -42 2 -37 11 3 6 -1 10 -10 10 -9 0 -13 5 -10 10 4 6 3 10 -2 9 -24
-4 -43 2 -37 13 4 6 3 8 -3 5 -5 -3 -22 1 -37 9 -16 7 -42 14 -58 14 -16 0
-27 4 -24 8 3 5 -1 9 -9 9 -8 0 -11 -5 -8 -11 4 -6 0 -5 -9 2 -12 9 -18 10
-23 2 -5 -8 -11 -7 -23 2 -12 10 -14 10 -8 1 5 -10 -3 -13 -31 -14 -21 -1 -42
-1 -46 0 -5 1 -6 -3 -2 -9 3 -5 -2 -10 -13 -10 -25 0 -113 -45 -105 -54 3 -3
0 -6 -8 -6 -19 0 -122 -104 -113 -113 4 -4 0 -7 -9 -7 -9 0 -16 -5 -14 -12 1
-6 -9 -17 -21 -24 -17 -8 -20 -13 -10 -17 7 -3 2 -6 -12 -7 -21 -1 -22 -2 -6
-9 16 -6 17 -9 4 -22 -8 -8 -14 -22 -12 -32 2 -12 -5 -17 -24 -18 -18 0 -22
-3 -12 -7 26 -12 22 -32 -8 -33 l-27 -1 25 -8 25 -8 -25 -2 c-18 -1 -21 -3 -9
-8 18 -8 18 -64 -1 -70 -9 -3 -9 -6 1 -13 10 -6 7 -9 -11 -10 -21 0 -22 -2 -7
-8 24 -9 24 -23 0 -32 -14 -6 -15 -8 -2 -8 22 -1 20 -31 -3 -31 -20 0 -52 16
-80 41 -17 14 -35 24 -94 51 -23 11 -22 49 2 69 11 9 11 15 3 25 -13 16 -43
19 -34 4 3 -5 4 -10 1 -10 -11 0 -39 51 -42 78 -2 15 -5 36 -7 47 -5 24 17 69
49 102 31 31 31 53 0 53 -14 0 -23 5 -22 13 3 24 29 77 37 77 4 0 10 8 14 19
6 21 82 101 96 101 5 0 9 7 9 15 0 17 -35 21 -45 5 -10 -16 -35 -12 -35 5 0
22 80 99 123 120 26 12 35 22 32 36 -2 10 1 19 6 19 6 0 7 5 4 10 -3 6 1 10
10 10 9 0 26 12 39 27 19 22 33 27 84 31 63 4 69 9 52 42 -8 14 -5 19 13 23
53 11 120 7 144 -9 20 -13 27 -13 33 -3 12 18 -26 79 -49 79 -6 0 -11 4 -11 9
0 13 47 41 69 41 11 0 23 5 26 10 3 6 16 10 29 10 12 0 33 10 45 22 21 19 23
28 18 80 -6 67 1 71 54 32 62 -46 136 -72 199 -69 55 3 124 16 138 27 23 19
13 31 -20 23 -29 -6 -64 -7 -135 -1 -12 1 -25 5 -29 9 -4 4 -18 7 -30 7 -35 0
-36 14 -4 45 22 21 43 29 87 34 104 12 206 12 315 0z m-425 -25 c-3 -3 -12 -4
-19 -1 -8 3 -5 6 6 6 11 1 17 -2 13 -5z m-697 -158 c0 -2 -8 -10 -17 -17 -16
-13 -17 -12 -4 4 13 16 21 21 21 13z m-141 -133 c-203 -213 -319 -430 -382
-713 -17 -77 -21 -130 -21 -280 -1 -194 14 -301 64 -446 11 -32 18 -59 16 -62
-8 -7 -66 188 -83 281 -23 122 -23 359 0 482 43 235 152 462 313 656 55 66
150 159 163 159 2 0 -30 -35 -70 -77z m743 -484 c29 -6 69 -20 89 -30 58 -29
130 -108 163 -179 29 -62 31 -71 32 -195 0 -71 -3 -132 -7 -135 -4 -3 -9 -16
-10 -30 -5 -32 -42 -70 -68 -70 -11 0 -23 -4 -26 -10 -3 -5 -16 -10 -29 -10
-12 0 -27 -5 -33 -11 -9 -9 -12 8 -11 66 0 42 -4 80 -9 84 -6 3 -9 14 -7 24 1
9 -4 17 -12 17 -9 0 -12 5 -9 10 3 6 -1 10 -9 10 -9 0 -16 4 -16 8 0 5 -12 15
-27 23 -89 45 -95 50 -78 69 8 9 33 26 55 36 22 10 40 22 40 25 0 4 10 9 23
13 26 6 76 46 59 46 -7 0 -11 6 -9 13 1 6 -4 11 -11 9 -8 -1 -11 2 -7 7 7 13
-57 55 -108 71 -56 18 -154 9 -206 -18 -135 -70 -240 -258 -241 -429 0 -51 0
-51 -25 -40 -24 11 -27 20 -27 77 -3 252 173 497 392 546 72 16 71 16 132 3z
m904 0 c189 -34 364 -221 410 -437 24 -117 16 -182 -23 -182 -8 0 -12 10 -11
28 3 39 -10 112 -32 171 -68 186 -219 306 -370 294 -58 -4 -138 -44 -177 -87
l-31 -33 62 -33 c33 -18 81 -46 104 -63 l44 -29 -54 -32 c-110 -63 -127 -90
-122 -194 1 -31 0 -60 -2 -64 -3 -4 -33 3 -69 16 -61 22 -88 40 -92 61 -1 6
-8 45 -17 87 -20 95 -20 169 -2 229 43 141 128 231 249 264 65 17 62 17 133 4z
m984 -424 c23 -227 -21 -476 -122 -695 -71 -155 -171 -292 -305 -420 l-78 -75
71 75 c135 143 210 249 281 396 38 79 44 97 32 105 -11 7 -11 9 4 9 10 0 15 5
12 10 -4 6 -10 8 -14 6 -4 -3 -8 1 -8 8 0 7 6 13 13 13 7 0 11 -4 8 -9 -3 -4
-1 -8 4 -8 6 0 13 7 16 16 3 8 2 12 -3 9 -5 -3 -12 -1 -16 5 -3 5 2 10 11 10
10 0 15 3 11 6 -3 4 1 13 10 22 13 13 13 17 2 21 -8 3 -15 12 -17 20 -3 12 -1
12 14 0 10 -8 15 -9 11 -2 -4 6 -3 13 2 15 5 1 12 18 16 36 5 27 4 32 -12 33
-15 0 -15 1 3 9 28 11 32 38 40 225 6 136 3 186 -20 345 -3 19 1 10 9 -20 8
-30 19 -104 25 -165z m-2704 18 c-2 -10 5 -25 15 -34 17 -14 17 -16 -3 -28
-11 -7 -18 -8 -14 -3 3 5 -1 9 -9 9 -8 0 -12 -4 -9 -9 3 -4 -16 -7 -43 -7
l-48 2 40 7 c39 6 39 6 10 12 -29 5 -29 5 6 7 24 1 36 6 36 16 0 11 -4 12 -13
4 -7 -6 -19 -9 -26 -6 -8 3 -6 6 5 6 10 1 15 6 12 11 -3 6 1 10 10 10 9 0 13
5 10 10 -3 6 0 10 9 10 8 0 13 -8 12 -17z m2472 -96 c6 -5 12 -6 12 -3 0 4 16
-5 35 -20 29 -22 35 -33 35 -65 0 -21 -5 -41 -12 -45 -7 -4 -8 -3 -4 4 4 7 1
12 -9 12 -9 0 -14 4 -11 8 10 17 -93 17 -108 1 -8 -9 -7 -10 3 -4 9 5 12 4 7
-3 -4 -6 -13 -9 -21 -6 -7 3 -28 -8 -46 -25 -17 -17 -37 -31 -44 -31 -6 0 -22
-11 -35 -25 -12 -13 -26 -22 -31 -20 -4 3 -9 1 -11 -4 -1 -5 -9 -11 -17 -13
-8 -2 -25 -12 -39 -23 -13 -11 -27 -21 -30 -21 -27 -6 -52 -18 -52 -25 0 -5
-9 -9 -19 -9 -11 0 -23 -4 -26 -10 -3 -5 -14 -10 -24 -10 -9 0 -79 -31 -155
-70 -76 -38 -145 -70 -153 -70 -8 0 -35 -9 -61 -20 -26 -11 -58 -21 -72 -22
-14 -2 -30 -7 -36 -10 -6 -4 -24 -10 -40 -12 -16 -3 -38 -8 -49 -10 -11 -2
-40 -7 -65 -11 -25 -4 -52 -11 -60 -15 -21 -11 -191 -15 -214 -5 -10 5 -29 9
-42 9 -13 1 -26 5 -30 9 -4 4 -30 7 -59 7 -28 0 -55 4 -61 10 -5 5 -18 11 -29
13 -11 1 -25 6 -31 10 -6 3 -25 8 -43 9 -17 1 -31 5 -31 9 0 4 -11 9 -25 11
-14 3 -25 1 -25 -3 0 -5 8 -9 19 -9 10 0 24 -7 31 -15 7 -9 8 -15 2 -15 -5 0
-12 -7 -16 -15 -3 -9 0 -15 10 -15 8 0 13 4 10 9 -14 23 49 39 70 18 4 -4 17
-7 29 -7 11 0 25 -4 30 -9 6 -5 33 -11 60 -12 28 -1 55 -6 60 -10 6 -4 24 -9
40 -10 17 -2 32 -7 35 -11 3 -3 23 -8 44 -10 l40 -4 -1 -68 c-1 -55 -5 -72
-22 -89 -20 -20 -24 -20 -96 -8 -41 7 -80 9 -86 5 -7 -4 -9 -3 -6 3 8 13 -58
27 -75 17 -6 -4 -8 -3 -5 3 8 12 -16 20 -55 19 -14 -1 -24 2 -22 6 4 6 -30 12
-56 10 -3 0 -7 14 -8 31 -3 39 -19 58 -32 37 -5 -8 -7 -17 -5 -20 7 -11 -76
-11 -89 -1 -7 6 -21 12 -32 14 -10 2 -39 13 -64 24 -24 12 -52 20 -62 18 -10
-2 -17 1 -15 8 1 6 -2 11 -8 12 -21 2 -96 47 -102 61 -3 8 0 21 7 29 6 8 9 19
5 25 -4 6 -3 9 2 8 4 -2 10 2 12 7 3 6 11 16 18 23 7 8 11 18 7 23 -3 5 0 8 8
7 7 -2 12 2 11 7 -2 15 56 18 73 4 7 -6 19 -9 26 -6 9 4 8 6 -3 6 -9 1 -22 8
-29 16 -7 8 -16 12 -21 9 -5 -3 -9 0 -9 5 0 6 -6 11 -13 11 -8 0 -28 7 -46 16
-17 9 -39 13 -47 10 -8 -3 -13 -2 -10 2 2 4 -20 19 -50 32 -30 14 -54 28 -54
33 0 4 -9 7 -20 7 -11 0 -20 5 -20 10 0 6 -10 10 -22 10 -18 -1 -14 -5 17 -20
44 -21 47 -27 14 -44 -12 -6 -21 -14 -20 -19 1 -4 -10 -19 -24 -33 -14 -14
-25 -29 -25 -34 0 -28 -60 2 -125 62 -16 15 -33 28 -37 28 -14 0 -8 40 12 79
10 21 17 40 15 43 -2 2 9 5 26 6 16 1 37 -4 45 -13 9 -8 20 -12 26 -9 6 4 -6
14 -26 24 -20 9 -33 20 -29 25 5 5 -1 3 -11 -5 -13 -10 -17 -10 -12 -2 10 16
-35 16 -53 0 -11 -11 -12 -10 -6 0 6 11 3 11 -14 0 -12 -7 -21 -16 -21 -20 0
-5 -7 -8 -16 -8 -8 0 -12 -4 -9 -10 3 -5 2 -10 -3 -10 -6 0 -15 -15 -22 -32
l-12 -33 -12 45 c-28 100 -27 118 3 153 40 45 104 77 155 77 43 0 142 -41 129
-54 -3 -3 1 -6 11 -6 9 0 15 -4 12 -8 -3 -5 10 -15 29 -22 19 -8 35 -17 35
-20 0 -9 127 -73 145 -73 8 0 12 -4 9 -9 -3 -4 2 -8 10 -8 9 0 18 0 21 0 3 0
21 -9 40 -20 20 -11 44 -20 54 -20 10 0 21 -3 25 -7 7 -7 25 -12 66 -16 14 -2
31 -7 39 -11 9 -6 12 -5 8 1 -4 7 12 11 45 12 28 0 56 4 62 9 6 4 24 9 39 11
37 3 79 26 69 37 -4 4 0 4 8 -2 17 -12 65 7 52 21 -4 5 -2 5 4 2 6 -3 23 1 38
9 16 7 36 14 45 14 9 0 23 6 30 13 8 7 11 7 8 1 -4 -7 22 2 57 20 35 17 62 33
61 36 -5 8 44 5 52 -3 3 -4 13 -1 21 6 9 6 13 8 10 2 -3 -5 23 -24 58 -41 35
-18 61 -28 59 -23 -3 4 7 2 21 -6 15 -8 32 -11 37 -8 6 3 7 1 3 -5 -5 -8 0
-12 13 -12 11 0 36 -9 56 -20 20 -11 42 -20 50 -20 8 0 31 -9 50 -20 20 -11
33 -15 29 -8 -5 8 -1 7 11 -2 10 -8 20 -14 22 -12 1 1 10 2 19 2 9 0 12 -5 8
-12 -6 -10 -4 -10 8 0 12 9 18 10 23 2 5 -8 10 -8 20 0 9 8 15 8 20 0 3 -6 12
-7 18 -3 7 4 28 8 47 10 39 2 57 6 82 17 9 4 22 8 30 10 7 1 28 9 45 18 22 11
35 13 39 6 5 -7 2 -8 -6 -3 -9 6 -11 4 -5 -5 5 -8 4 -11 -3 -6 -6 3 -13 2 -17
-4 -4 -6 -10 -8 -14 -6 -4 3 -8 -1 -8 -9 0 -13 4 -12 19 2 10 9 18 13 18 8 0
-4 7 -2 15 5 8 7 13 16 10 20 -3 4 2 13 10 20 8 7 15 9 15 5 0 -5 9 0 19 9 14
13 21 14 27 5 5 -8 3 -10 -6 -4 -9 6 -11 4 -5 -5 5 -8 4 -11 -3 -6 -6 3 -13 2
-17 -4 -4 -6 -10 -8 -14 -6 -4 3 -8 -1 -8 -8 0 -7 6 -13 13 -13 7 0 12 5 11
11 -1 5 3 10 10 11 14 0 28 13 28 26 0 5 5 8 10 7 6 -2 9 -7 7 -13 -2 -5 5 -2
16 8 10 9 22 14 27 10 4 -5 5 -2 1 5 -6 11 -11 11 -24 0 -14 -11 -14 -9 1 8
17 21 51 29 40 10 -4 -6 1 -5 10 3 9 7 14 18 10 24 -3 5 -1 7 4 4 6 -4 18 2
28 13 10 11 22 17 27 14 4 -3 7 0 6 7 -2 7 7 17 18 24 12 6 29 17 38 25 33 26
103 30 134 7z m-2540 6 c-10 -2 -28 -2 -40 0 -13 2 -5 4 17 4 22 1 32 -1 23
-4z m-51 -19 c-3 -3 -12 -4 -19 -1 -8 3 -5 6 6 6 11 1 17 -2 13 -5z m0 -20
c-3 -3 -12 -4 -19 -1 -8 3 -5 6 6 6 11 1 17 -2 13 -5z m2583 -80 c0 -8 -19
-13 -24 -6 -3 5 1 9 9 9 8 0 15 -2 15 -3z m37 -8 c-1 -6 4 -10 11 -8 6 1 11
-4 10 -10 -2 -7 2 -12 8 -11 6 1 11 -5 11 -13 0 -10 -8 -7 -27 11 -14 14 -29
23 -32 20 -2 -3 -5 1 -5 8 0 8 6 14 13 14 7 0 12 -5 11 -11z m-80 -68 c24 -27
43 -62 43 -80 0 -7 -20 -29 -45 -48 -25 -19 -51 -40 -58 -45 -27 -24 -62 -45
-74 -45 -12 0 -73 108 -73 129 0 5 18 20 40 32 22 13 40 26 40 31 0 4 6 8 13
8 6 0 23 9 37 20 33 26 52 25 77 -2z m-208 -163 c18 -37 30 -74 26 -84 -3 -10
-39 -37 -81 -61 -97 -55 -110 -51 -142 50 -12 40 -21 73 -20 74 2 0 13 7 25
14 13 6 31 12 40 13 14 1 76 31 119 58 1 1 16 -28 33 -64z m428 -21 c-3 -3
-12 -4 -19 -1 -8 3 -5 6 6 6 11 1 17 -2 13 -5z m-649 -88 c30 -84 25 -112 -26
-133 -20 -8 -50 -21 -67 -29 -56 -26 -178 -64 -205 -64 -15 0 -35 9 -45 20
-10 11 -15 20 -12 20 4 0 -2 23 -13 52 -11 29 -16 55 -12 59 4 4 32 14 62 24
73 23 142 53 215 91 33 18 64 31 69 30 6 -1 21 -33 34 -70z m629 28 c-3 -3
-12 -4 -19 -1 -8 3 -5 6 6 6 11 1 17 -2 13 -5z m-2843 -130 c3 -8 2 -12 -4 -9
-6 3 -10 10 -10 16 0 14 7 11 14 -7z m2806 12 c0 -2 -6 -9 -13 -15 -10 -8 -14
-7 -14 4 0 8 6 15 14 15 7 0 13 -2 13 -4z m-2318 -331 c3 3 11 -2 19 -12 12
-14 12 -16 0 -8 -10 5 -12 4 -7 -4 6 -9 11 -9 22 0 12 10 15 10 12 -1 -2 -8 2
-14 9 -15 7 0 18 -7 25 -15 11 -12 10 -12 -7 0 -19 14 -19 14 -6 -3 10 -12 17
-15 25 -7 7 7 21 0 45 -22 18 -18 30 -26 26 -18 -5 9 1 7 16 -5 13 -12 38 -27
54 -35 17 -8 41 -23 54 -35 15 -12 21 -14 16 -5 -5 9 2 6 16 -6 25 -21 185
-104 210 -108 8 -1 31 -10 53 -21 21 -10 44 -18 52 -18 7 0 11 -4 8 -9 -3 -4
6 -9 20 -9 41 -2 44 -3 58 -19 11 -12 11 -12 -2 -4 -8 6 -31 11 -50 13 -121
10 -368 111 -515 211 -74 51 -182 140 -169 140 4 0 -5 15 -22 33 l-29 32 31
-28 c17 -15 33 -25 36 -22z m1817 -91 c-26 -32 -178 -128 -259 -165 -25 -11
-58 -27 -75 -35 -39 -18 -145 -54 -159 -54 -6 0 11 11 38 25 27 14 58 25 68
25 11 0 16 5 13 10 -4 6 -3 10 2 9 23 -4 43 2 38 11 -4 6 -3 10 2 9 23 -4 43
2 38 11 -4 6 -3 10 2 9 23 -4 43 2 38 11 -4 6 -3 10 2 9 24 -4 43 2 37 13 -4
6 -3 8 3 5 6 -4 16 -1 21 6 6 7 27 19 46 27 19 7 33 17 30 22 -3 5 -2 8 3 7
23 -4 43 2 38 11 -4 6 -3 10 2 9 24 -4 43 2 37 13 -4 6 -3 8 3 5 6 -4 16 0 23
8 7 8 15 15 17 15 3 0 -1 -7 -8 -16z m-1036 -291 c-7 -2 -21 -2 -30 0 -10 3
-4 5 12 5 17 0 24 -2 18 -5z"/>
<path d="M1220 2453 c-134 -17 -283 -70 -344 -123 -97 -84 -107 -106 -79 -162
7 -15 13 -30 13 -33 -1 -21 2 -25 14 -25 8 0 16 -5 18 -12 3 -8 11 -4 24 11
38 46 70 73 107 89 20 9 37 20 37 24 0 5 9 8 20 8 11 0 20 4 20 8 0 4 21 14
48 21 26 8 52 17 57 21 12 9 66 18 154 26 63 6 166 -10 177 -28 9 -14 81 -9
94 6 6 8 10 28 8 43 -4 33 -54 93 -78 93 -9 0 -20 4 -25 8 -31 27 -155 38
-265 25z"/>
<path d="M2020 2449 c-80 -36 -110 -54 -115 -70 -4 -11 -11 -19 -17 -19 -6 0
-8 -3 -5 -6 3 -4 2 -14 -3 -24 -17 -31 15 -60 65 -60 24 0 45 4 47 9 2 6 14
12 28 14 14 2 33 7 42 11 30 14 243 -8 254 -25 3 -5 16 -9 29 -9 13 0 27 -4
30 -10 3 -5 17 -10 31 -10 14 0 22 -4 19 -10 -4 -6 5 -10 20 -10 15 0 24 -4
20 -10 -3 -5 3 -10 14 -10 12 0 21 -4 21 -8 0 -5 16 -14 35 -22 19 -7 32 -17
29 -22 -3 -4 3 -8 12 -8 10 0 15 -3 11 -6 -3 -4 1 -13 9 -21 8 -8 12 -18 9
-23 -3 -5 1 -7 7 -5 40 10 57 18 52 26 -3 5 2 9 10 9 9 0 13 7 11 20 -2 11 2
25 8 32 16 17 16 50 0 66 -7 8 -11 18 -7 23 3 5 0 8 -8 7 -7 -2 -12 3 -10 10
1 6 -4 11 -10 10 -7 -2 -12 3 -10 10 1 8 -2 11 -7 8 -5 -4 -16 1 -24 9 -9 8
-21 15 -27 15 -6 0 -8 5 -5 10 3 6 -3 10 -14 10 -12 0 -21 3 -21 8 0 8 -49 32
-67 32 -7 0 -13 4 -13 8 0 4 -14 9 -32 10 -17 2 -36 6 -42 11 -28 22 -334 38
-376 20z"/>
<path d="M1228 2253 c7 -3 16 -2 19 1 4 3 -2 6 -13 5 -11 0 -14 -3 -6 -6z"/>
<path d="M1048 2193 c7 -3 16 -2 19 1 4 3 -2 6 -13 5 -11 0 -14 -3 -6 -6z"/>
<path d="M1028 2173 c7 -3 16 -2 19 1 4 3 -2 6 -13 5 -11 0 -14 -3 -6 -6z"/>
<path d="M993 2153 c9 -2 23 -2 30 0 6 3 -1 5 -18 5 -16 0 -22 -2 -12 -5z"/>
<path d="M973 2133 c9 -2 23 -2 30 0 6 3 -1 5 -18 5 -16 0 -22 -2 -12 -5z"/>
<path d="M1908 2133 c7 -3 16 -2 19 1 4 3 -2 6 -13 5 -11 0 -14 -3 -6 -6z"/>
<path d="M953 2113 c9 -2 23 -2 30 0 6 3 -1 5 -18 5 -16 0 -22 -2 -12 -5z"/>
<path d="M948 2093 c7 -3 16 -2 19 1 4 3 -2 6 -13 5 -11 0 -14 -3 -6 -6z"/>
<path d="M1588 2093 c7 -3 16 -2 19 1 4 3 -2 6 -13 5 -11 0 -14 -3 -6 -6z"/>
<path d="M913 2073 c9 -2 23 -2 30 0 6 3 -1 5 -18 5 -16 0 -22 -2 -12 -5z"/>
<path d="M893 2053 c9 -2 23 -2 30 0 6 3 -1 5 -18 5 -16 0 -22 -2 -12 -5z"/>
<path d="M888 2033 c7 -3 16 -2 19 1 4 3 -2 6 -13 5 -11 0 -14 -3 -6 -6z"/>
<path d="M868 2013 c7 -3 16 -2 19 1 4 3 -2 6 -13 5 -11 0 -14 -3 -6 -6z"/>
<path d="M828 1933 c7 -3 16 -2 19 1 4 3 -2 6 -13 5 -11 0 -14 -3 -6 -6z"/>
<path d="M808 1893 c7 -3 16 -2 19 1 4 3 -2 6 -13 5 -11 0 -14 -3 -6 -6z"/>
<path d="M788 1853 c7 -3 16 -2 19 1 4 3 -2 6 -13 5 -11 0 -14 -3 -6 -6z"/>
<path d="M768 1753 c7 -3 16 -2 19 1 4 3 -2 6 -13 5 -11 0 -14 -3 -6 -6z"/>
<path d="M1688 1753 c7 -3 16 -2 19 1 4 3 -2 6 -13 5 -11 0 -14 -3 -6 -6z"/>
<path d="M748 1653 c7 -3 16 -2 19 1 4 3 -2 6 -13 5 -11 0 -14 -3 -6 -6z"/>
<path d="M1668 1653 c7 -3 16 -2 19 1 4 3 -2 6 -13 5 -11 0 -14 -3 -6 -6z"/>
<path d="M658 1493 c6 -2 18 -2 25 0 6 3 1 5 -13 5 -14 0 -19 -2 -12 -5z"/>
<path d="M688 1473 c7 -3 16 -2 19 1 4 3 -2 6 -13 5 -11 0 -14 -3 -6 -6z"/>
<path d="M2465 1460 c-4 -6 -10 -8 -14 -6 -4 3 -8 -1 -8 -9 0 -13 3 -13 17 0
9 8 20 12 25 8 4 -5 5 -2 1 5 -9 15 -13 15 -21 2z"/>
<path d="M2405 1440 c-4 -6 -10 -8 -14 -6 -4 3 -8 -1 -8 -9 0 -13 3 -13 17 0
9 8 20 12 25 8 4 -5 5 -2 1 5 -9 15 -13 15 -21 2z"/>
<path d="M2343 1425 c0 -6 6 -12 12 -12 6 0 12 6 12 12 0 6 -6 12 -12 12 -6 0
-12 -6 -12 -12z"/>
<path d="M1088 1273 c7 -3 16 -2 19 1 4 3 -2 6 -13 5 -11 0 -14 -3 -6 -6z"/>
<path d="M1128 1253 c7 -3 16 -2 19 1 4 3 -2 6 -13 5 -11 0 -14 -3 -6 -6z"/>
<path d="M1173 1233 c9 -2 23 -2 30 0 6 3 -1 5 -18 5 -16 0 -22 -2 -12 -5z"/>
<path d="M1220 1216 c0 -2 9 -6 20 -9 11 -3 18 -1 14 4 -5 9 -34 13 -34 5z"/>
<path d="M1283 1083 c0 -7 6 -13 12 -13 6 0 12 6 12 13 0 8 -6 14 -12 14 -6 0
-12 -6 -12 -14z"/>
<path d="M890 746 c0 -2 8 -10 18 -17 15 -13 16 -12 3 4 -13 16 -21 21 -21 13z"/>
</g>
</svg>
